<?xml version="1.0" encoding="UTF-8"?>
<svg xmlns="http://www.w3.org/2000/svg" xmlns:xlink="http://www.w3.org/1999/xlink" width="18px" height="18px" viewBox="0 0 18 18" version="1.1">
<g id="surface1">
<path style=" stroke:none;fill-rule:nonzero;fill:rgb(0%,0%,0%);fill-opacity:1;" d="M 12.398438 11.75 C 13.550781 10.503906 14.265625 8.835938 14.265625 7 C 14.265625 3.144531 11.132812 0 7.265625 0 C 3.402344 0 0.269531 3.144531 0.269531 7 C 0.269531 10.851562 3.402344 14 7.265625 14 C 8.839844 14 10.285156 13.480469 11.457031 12.605469 L 16.664062 17.808594 C 16.789062 17.9375 16.949219 18 17.105469 18 C 17.265625 18 17.433594 17.9375 17.550781 17.808594 C 17.792969 17.566406 17.792969 17.164062 17.550781 16.914062 Z M 1.535156 7 C 1.535156 3.84375 4.101562 1.265625 7.265625 1.265625 C 10.425781 1.265625 13 3.832031 13 7 C 13 10.167969 10.433594 12.730469 7.265625 12.730469 C 4.101562 12.730469 1.535156 10.15625 1.535156 7 Z M 1.535156 7 "/>
</g>
</svg>
