<?xml version="1.0" standalone="no"?>
<!DOCTYPE svg PUBLIC "-//W3C//DTD SVG 20010904//EN"
 "http://www.w3.org/TR/2001/REC-SVG-20010904/DTD/svg10.dtd">
<svg version="1.0" xmlns="http://www.w3.org/2000/svg"
 width="968.000000pt" height="608.000000pt" viewBox="0 0 968.000000 608.000000"
 preserveAspectRatio="xMidYMid meet">

<g transform="translate(0.000000,608.000000) scale(0.100000,-0.100000)"
fill="#000000" stroke="none">
<path d="M269 5881 l-29 -30 2 -2498 3 -2498 27 -50 c34 -66 111 -137 173
-161 48 -18 84 -19 745 -19 l695 0 57 28 c67 33 121 90 157 166 l26 56 3 1176
2 1176 298 6 c314 6 364 13 512 68 254 94 488 315 615 581 79 164 115 341 115
559 0 198 -86 448 -221 639 -142 201 -388 381 -597 435 -65 16 -369 34 -599
35 l-122 0 -3 151 -3 151 -33 29 -32 29 -881 0 -881 0 -29 -29z m2467 -858
c91 -24 170 -72 251 -150 129 -127 191 -265 200 -448 10 -200 -51 -359 -191
-501 -68 -69 -97 -89 -181 -130 l-100 -49 -307 -3 -308 -4 0 657 0 657 283 -5
c235 -4 294 -8 353 -24z m-1817 -402 l254 -81 54 59 c74 82 134 111 233 111
66 0 86 -4 138 -30 65 -33 109 -76 144 -143 19 -35 23 -58 23 -142 0 -84 -4
-107 -23 -147 -31 -63 -94 -125 -150 -151 -71 -31 -177 -35 -236 -8 -60 26
-121 74 -143 112 -12 21 -25 29 -45 29 -15 0 -114 -27 -220 -59 -407 -125
-370 -119 -412 -72 -18 20 -19 36 -13 295 4 180 10 282 17 297 11 19 18 21 69
16 31 -3 170 -42 310 -86z"/>
<path d="M4474 3076 c-15 -12 -17 -18 -8 -33 8 -13 29 -20 76 -25 80 -8 99
-17 161 -76 l47 -46 0 -746 c-1 -821 -8 -1056 -35 -1096 -25 -38 -72 -62 -157
-81 -114 -24 -126 -37 -51 -53 113 -26 668 -19 696 9 13 13 -17 27 -86 40 -70
13 -131 40 -174 78 l-33 28 -6 685 c-4 377 -4 743 1 814 l7 130 35 -75 c19
-41 136 -294 260 -564 271 -590 458 -982 515 -1082 l42 -74 18 23 c31 42 298
610 688 1469 l135 295 8 -530 c9 -591 3 -950 -16 -1042 -23 -107 -36 -119
-177 -155 -41 -11 -81 -26 -88 -33 -24 -23 48 -28 397 -28 362 0 501 7 501 27
0 13 -54 30 -127 39 -106 15 -128 53 -144 247 -15 197 -7 1641 10 1693 22 67
66 94 188 111 22 4 49 13 60 20 17 13 16 14 -12 26 -44 19 -531 19 -563 1 -15
-9 -44 -56 -79 -130 -189 -401 -532 -1148 -610 -1332 -25 -58 -56 -125 -70
-149 -21 -36 -27 -41 -39 -30 -16 17 -91 175 -642 1364 l-130 280 -44 7 c-23
3 -154 7 -289 7 -199 1 -249 -2 -265 -13z"/>
<path d="M2963 2401 c-229 -66 -398 -249 -474 -511 -32 -113 -37 -315 -11
-440 57 -276 205 -468 415 -539 99 -34 232 -47 330 -33 171 24 336 141 451
320 26 39 51 72 55 72 9 0 21 -27 47 -110 23 -75 68 -162 104 -204 37 -42 104
-76 150 -76 81 0 171 76 220 184 46 103 64 222 36 245 -19 16 -49 -23 -72 -91
-21 -63 -80 -124 -128 -134 -83 -15 -183 75 -226 205 -31 93 -35 163 -16 256
16 79 119 434 195 675 50 159 53 154 -106 155 l-117 0 -62 -218 c-34 -119 -64
-220 -66 -223 -3 -3 -29 39 -58 93 -118 221 -223 325 -379 373 -80 25 -202 25
-288 1z m322 -140 c116 -51 242 -222 305 -415 30 -91 25 -133 -39 -327 -148
-452 -315 -608 -538 -504 -66 30 -142 101 -171 157 -51 103 -57 153 -57 453 0
304 7 358 61 471 27 58 100 139 155 174 30 19 45 21 134 17 75 -3 112 -9 150
-26z"/>
<path d="M7950 2404 c-209 -56 -387 -230 -476 -464 -27 -73 -28 -81 -29 -265
0 -232 14 -308 82 -445 90 -180 250 -309 423 -340 87 -17 242 -17 310 -1 151
36 316 173 414 344 16 27 31 45 35 40 5 -4 20 -44 36 -88 68 -198 155 -305
247 -305 81 0 165 62 217 159 56 107 78 278 33 269 -9 -2 -34 -35 -54 -73 -21
-39 -56 -87 -78 -107 -35 -34 -45 -38 -89 -38 -42 0 -56 5 -86 31 -20 18 -43
46 -52 63 -20 39 -93 255 -93 276 0 8 59 212 131 453 85 286 128 442 121 449
-5 5 -63 10 -128 11 l-119 2 -23 -75 c-85 -276 -104 -330 -111 -330 -13 0 -36
30 -81 110 -107 187 -221 284 -377 325 -72 19 -181 18 -253 -1z m307 -139
c125 -57 248 -220 303 -404 44 -145 16 -283 -110 -536 -130 -263 -221 -344
-369 -333 -115 9 -209 86 -280 229 -39 78 -43 96 -52 197 -11 132 2 421 25
528 30 139 83 240 158 298 78 59 222 68 325 21z"/>
</g>
</svg>
